#!OML:ASF F:\VICON\USERDATA\INSTALL\rory3\rory3.ASF
:FULLY-SPECIFIED
:DEGREES
93
root 1.11593 15.0813 -17.3722 11.7703 -1.0543 -0.958935
lowerback 21.2308 0.0674672 0.206979
upperback 2.69219 0.340117 2.11246
thorax -8.9523 0.19176 2.09582
lowerneck -26.5154 -5.00499 -8.17323
upperneck 6.65906 -4.94201 7.2303
head 6.58757 -1.95938 3.04883
rclavicle 9.93923e-015 1.70955e-014
rhumerus -24.4793 -1.7968 -82.5553
rradius 44.8964
rwrist 9.73904
rhand -17.5742 14.5008
rfingers 7.12502
rthumb 8.68125 -15.3007
lclavicle 9.93923e-015 1.70955e-014
lhumerus -20.3576 1.51926 86.739
lradius 32.8526
lwrist -7.08268
lhand -28.6667 7.68304
lfingers 7.12502
lthumb -2.02985 37.6531
rfemur -51.8458 -1.73408 23.7709
rtibia 78.5336
rfoot -25.9828 -15.9123
rtoes -12.5039
lfemur -52.762 8.54657 -21.238
ltibia 77.4138
lfoot -29.3753 -2.92352
ltoes -4.84341
94
root 1.10849 14.9972 -17.382 11.665 -1.12068 -0.945481
lowerback 21.4973 0.0628547 0.134984
upperback 2.78795 0.312929 2.05068
thorax -8.98912 0.179784 2.07849
lowerneck -26.2223 -4.98526 -8.12241
upperneck 6.141 -4.94826 7.33895
head 6.3775 -1.95826 3.07803
rclavicle 2.38542e-015 -3.97569e-015
rhumerus -24.2161 -1.80298 -82.5529
rradius 44.4437
rwrist 9.72277
rhand -15.9218 14.0405
rfingers 7.12502
rthumb 10.2756 -15.6885
lclavicle 2.38542e-015 -3.97569e-015
lhumerus -19.9337 1.73881 86.5151
lradius 32.4539
lwrist -6.93687
lhand -28.6667 7.68304
lfingers 7.12502
lthumb -2.02985 37.6531
rfemur -52.5382 -1.54097 23.7609
rtibia 79.7914
rfoot -26.0004 -16.0232
rtoes -12.8831
lfemur -53.4073 8.70653 -21.1231
ltibia 78.6402
lfoot -29.4842 -3.60193
ltoes -4.35617
95
root 1.10065 14.9187 -17.383 11.5467 -1.17368 -0.868135
lowerback 21.5558 0.0612954 -0.000507532
upperback 2.95984 0.271385 1.9951
thorax -8.82923 0.161708 2.10565
lowerneck -26.5223 -4.97725 -8.1591
upperneck 6.16639 -4.92377 7.4925
head 6.43403 -1.92725 3.13688
rclavicle -7.95139e-016 1.74931e-014
rhumerus -24.0492 -1.749 -82.5171
rradius 44.3803
rwrist 10.2541
rhand -15.4916 13.8131
rfingers 7.12502
rthumb 10.6905 -15.8949
lclavicle -7.95139e-016 1.74931e-014
lhumerus -19.5325 1.99245 86.317
lradius 32.1988
lwrist -6.92683
lhand -28.6667 7.68304
lfingers 7.12502
lthumb -2.02985 37.6531
rfemur -53.1329 -1.45104 23.6948
rtibia 80.9531
rfoot -26.038 -16.0708
rtoes -13.2326
lfemur -53.8839 8.86846 -21.0803
ltibia 79.7018
lfoot -29.7022 -4.08494
ltoes -4.53752
96
root 1.09206 14.8473 -17.3789 11.3683 -1.10197 -0.878246
lowerback 21.6398 0.018288 -0.00974902
upperback 3.11628 0.209927 1.98084
thorax -8.69919 0.130888 2.11189
lowerneck -26.9675 -4.97477 -8.07628
upperneck 6.34422 -4.91584 7.45731
head 6.55335 -1.9146 3.11086
rclavicle -7.95139e-016 -6.75868e-015
rhumerus -23.9121 -1.71954 -82.4324
rradius 44.279
rwrist 11.0843
rhand -16.0242 14.1065
rfingers 7.12502
rthumb 10.1768 -15.6274
lclavicle -7.95139e-016 -6.75868e-015
lhumerus -19.1376 2.27669 86.1348
lradius 31.6519
lwrist -7.20096
lhand -28.6667 7.68304
lfingers 7.12502
lthumb -2.02985 37.6531
rfemur -53.4704 -1.45458 23.7403
rtibia 81.9551
rfoot -26.1912 -16.0624
rtoes -12.9757
lfemur -54.2127 8.92669 -20.9003
ltibia 80.6592
lfoot -29.9539 -4.81971
ltoes -4.19134
97
root 1.08604 14.7871 -17.3719 11.1606 -1.09979 -0.819731
lowerback 21.8323 0.0165607 -0.100538
upperback 3.18379 0.184242 1.94746
thorax -8.72683 0.120808 2.13597
lowerneck -27.1518 -4.99824 -7.9714
upperneck 6.47109 -4.95858 7.34838
head 6.61884 -1.93822 3.05082
rclavicle 3.18055e-015 -1.59028e-015
rhumerus -23.847 -1.79087 -82.3462
rradius 43.9505
rwrist 11.5646
rhand -16.674 14.8804
rfingers 7.12502
rthumb 9.54985 -14.8832
lclavicle 3.18055e-015 -1.59028e-015
lhumerus -18.7275 2.45387 85.9727
lradius 30.8956
lwrist -7.39934
lhand -28.6667 7.68304
lfingers 7.12502
lthumb -2.02985 37.6531
rfemur -53.666 -1.47607 23.7065
rtibia 82.7896
rfoot -26.3008 -16.2427
rtoes -13.3558
lfemur -54.362 8.99757 -20.8482
ltibia 81.4677
lfoot -30.236 -5.43029
ltoes -3.71174
98
root 1.08239 14.7301 -17.361 11.034 -1.25295 -0.866113
lowerback 21.7885 0.0706767 -0.135795
upperback 3.29078 0.244585 1.9556
thorax -8.58776 0.148934 2.14613
lowerneck -27.1576 -5.03386 -8.04288
upperneck 6.40666 -4.97953 7.35903
head 6.60178 -1.94953 3.0627
rclavicle 7.35503e-015 -2.38542e-015
rhumerus -23.6608 -1.95195 -82.2012
rradius 43.4835
rwrist 11.8145
rhand -17.102 15.719
rfingers 7.12502
rthumb 9.13689 -14.063
lclavicle 7.35503e-015 -2.38542e-015
lhumerus -18.184 2.72284 85.8711
lradius 30.1745
lwrist -7.89123
lhand -28.6667 7.68304
lfingers 7.12502
lthumb -2.02985 37.6531
rfemur -53.9203 -1.37411 23.782
rtibia 83.4763
rfoot -26.2874 -16.5499
rtoes -14.0534
lfemur -54.5444 9.28426 -20.796
ltibia 82.1891
lfoot -30.6088 -5.58954
ltoes -4.03183
99
root 1.07626 14.6728 -17.3515 10.9482 -1.38034 -0.931394
lowerback 21.7261 0.0970957 -0.160742
upperback 3.30432 0.274366 1.97967
thorax -8.54088 0.163689 2.17757
lowerneck -26.7678 -5.04803 -8.18062
upperneck 6.13397 -4.98134 7.43499
head 6.46138 -1.95615 3.11176
rclavicle -6.36111e-015 -1.43125e-014
rhumerus -23.5086 -2.08105 -82.0291
rradius 42.8288
rwrist 12.6594
rhand -17.4465 16.1088
rfingers 7.12502
rthumb 8.80445 -13.6875
lclavicle -6.36111e-015 -1.43125e-014
lhumerus -17.9557 2.94731 85.7598
lradius 29.6766
lwrist -8.46974
lhand -17.3245 25.6831
lfingers 7.12502
lthumb 8.9222 55.4744
rfemur -54.1465 -1.29049 23.9204
rtibia 84.0758
rfoot -26.4106 -16.8156
rtoes -13.9537
lfemur -54.8036 9.57814 -20.7311
ltibia 82.8382
lfoot -30.8789 -5.63354
ltoes -4.22254
100
root 1.06779 14.6292 -17.3424 10.8092 -1.28298 -0.944466
lowerback 21.8311 0.0645637 -0.148052
upperback 3.20987 0.236556 1.96628
thorax -8.69967 0.146896 2.16854
lowerneck -26.6024 -5.00733 -8.14878
upperneck 6.31136 -4.95879 7.42771
head 6.49347 -1.94786 3.10832
rclavicle 2.98177e-015 -1.98785e-014
rhumerus -23.5967 -2.3611 -81.8846
rradius 42.2948
rwrist 13.4932
rhand -17.1328 15.7778
rfingers 7.12502
rthumb 9.10723 -14.0056
lclavicle 2.98177e-015 -1.98785e-014
lhumerus -17.983 3.12432 85.5973
lradius 29.2298
lwrist -8.94158
lhand -18.12 23.9941
lfingers 7.12502
lthumb 8.15455 53.8167
rfemur -54.1594 -1.42241 24.0615
rtibia 84.511
rfoot -26.7559 -16.9665
rtoes -12.9468
lfemur -54.9284 9.62591 -20.6738
ltibia 83.3179
lfoot -31.0081 -5.44419
ltoes -4.62811
